# xmcd
#
# Track frame offsets:
#       300
#       23946
#       51500
#       74646
#       99490
#       130694
#       150186
#       189938
#       235979
#       264387
#       291290
#       315514
#
# Disc length: 4481 seconds
#
# Revision: 0
# Processed by: cddbd v1.5.1PL0 Copyright (c) Steve Scherf et al.
# Submitted via: CD-DA_X-Tractor v0.23
#
DISCID=a5117d0c
DTITLE=The Black Crowes - Tall As Can Be - CD1
DYEAR=2000
DGENRE=Rock
TTITLE0=Kick The Devil Outta Me
TTITLE1=You're Such A Pity
TTITLE2=You're Wrong
TTITLE3=You're Wrong (Acoustic)
TTITLE4=Miserable
TTITLE5=Bruises and Pills
TTITLE6=On That Hollow Day
TTITLE7=Bewildered
TTITLE8=The Fear Years
TTITLE9=The Nowhere Stars
TTITLE10=Bitter, Bitter You
TTITLE11=Grinnin'
EXTD=
EXTT0=
EXTT1=
EXTT2=
EXTT3=
EXTT4=
EXTT5=
EXTT6=
EXTT7=
EXTT8=
EXTT9=
EXTT10=
EXTT11=
PLAYORDER=
